<svg width="211" height="211" viewBox="0 0 211 211" fill="none" xmlns="http://www.w3.org/2000/svg">
<path d="M125.64 144.256C147.295 132.885 155.633 106.112 144.262 84.4561C132.891 62.8006 106.118 54.4632 84.4627 65.834C62.8072 77.2048 54.4698 103.978 65.8406 125.633C77.2113 147.289 103.984 155.626 125.64 144.256Z" stroke="#D91966" stroke-width="2" stroke-miterlimit="10"/>
<path d="M150.757 143.283C171.875 118.039 168.529 80.4546 143.284 59.3372C118.039 38.2199 80.4553 41.5658 59.3379 66.8106C38.2206 92.0553 41.5665 129.639 66.8113 150.757C92.056 171.874 129.64 168.528 150.757 143.283Z" stroke="#D91966" stroke-width="2" stroke-miterlimit="10"/>
<path d="M129.196 151.029C103.838 164.344 72.3761 154.546 59.0612 129.188C45.7463 103.83 55.544 72.3677 80.902 59.0528C106.26 45.7379 137.722 55.5355 151.037 80.8936C164.352 106.252 154.55 137.716 129.196 151.029Z" stroke="#D91966" stroke-width="2" stroke-miterlimit="10"/>
<path d="M125.64 144.256C147.295 132.885 155.633 106.112 144.262 84.4561C132.891 62.8006 106.118 54.4632 84.4627 65.834C62.8072 77.2048 54.4698 103.978 65.8406 125.633C77.2113 147.289 103.984 155.626 125.64 144.256Z" stroke="#D91966" stroke-width="2" stroke-miterlimit="10"/>
<path d="M121.822 136.984C139.461 127.722 146.252 105.915 136.99 88.2759C127.728 70.637 105.921 63.846 88.2819 73.1078C70.6429 82.3695 63.8519 104.177 73.1137 121.816C82.3754 139.455 104.183 146.246 121.822 136.984Z" stroke="#D91966" stroke-width="2" stroke-miterlimit="10"/>
<path d="M118.324 130.322C132.284 122.992 137.658 105.734 130.329 91.7741C122.999 77.8144 105.74 72.4399 91.7802 79.7698C77.8205 87.0997 72.446 104.358 79.7759 118.318C87.1058 132.278 104.364 137.652 118.324 130.322Z" stroke="#D91966" stroke-width="2" stroke-miterlimit="10"/>
</svg>
