<svg width="26" height="130" viewBox="0 0 26 130" fill="none" xmlns="http://www.w3.org/2000/svg">
<g clip-path="url(#clip0_2_5014)">
<path d="M23.09 4.18049C21.94 4.18049 21 3.24049 21 2.09049C21 0.940488 21.94 0.000488281 23.09 0.000488281C24.24 0.000488281 25.18 0.940488 25.18 2.09049C25.18 3.24049 24.24 4.18049 23.09 4.18049Z" fill="#060000"/>
<path d="M23.09 22.1297C21.94 22.1297 21 21.1897 21 20.0397C21 18.8897 21.94 17.9497 23.09 17.9497C24.24 17.9497 25.18 18.8897 25.18 20.0397C25.18 21.1897 24.24 22.1297 23.09 22.1297Z" fill="#060000"/>
<path d="M23.09 40.0906C21.94 40.0906 21 39.1506 21 38.0006C21 36.8506 21.94 35.9106 23.09 35.9106C24.24 35.9106 25.18 36.8506 25.18 38.0006C25.18 39.1506 24.24 40.0906 23.09 40.0906Z" fill="#060000"/>
<path d="M23.09 58.0496C21.94 58.0496 21 57.1096 21 55.9596C21 54.8096 21.94 53.8696 23.09 53.8696C24.24 53.8696 25.18 54.8096 25.18 55.9596C25.18 57.1096 24.24 58.0496 23.09 58.0496Z" fill="#060000"/>
<path d="M23.09 75.5106C21.94 75.5106 21 74.5706 21 73.4206C21 72.2706 21.94 71.3306 23.09 71.3306C24.24 71.3306 25.18 72.2706 25.18 73.4206C25.18 74.5706 24.24 75.5106 23.09 75.5106Z" fill="#060000"/>
<path d="M23.09 93.4715C21.94 93.4715 21 92.5315 21 91.3815C21 90.2315 21.94 89.2915 23.09 89.2915C24.24 89.2915 25.18 90.2315 25.18 91.3815C25.18 92.5315 24.24 93.4715 23.09 93.4715Z" fill="#060000"/>
<path d="M23.09 111.43C21.94 111.43 21 110.49 21 109.34C21 108.19 21.94 107.25 23.09 107.25C24.24 107.25 25.18 108.19 25.18 109.34C25.18 110.49 24.24 111.43 23.09 111.43Z" fill="#060000"/>
<path d="M23.09 129.38C21.94 129.38 21 128.44 21 127.29C21 126.14 21.94 125.2 23.09 125.2C24.24 125.2 25.18 126.14 25.18 127.29C25.18 128.45 24.24 129.38 23.09 129.38Z" fill="#060000"/>
<path d="M2.09 4.18049C0.94 4.18049 0 3.24049 0 2.09049C0 0.940488 0.94 0.000488281 2.09 0.000488281C3.24 0.000488281 4.18 0.940488 4.18 2.09049C4.18 3.24049 3.24 4.18049 2.09 4.18049Z" fill="#060000"/>
<path d="M2.09 22.1314C0.94 22.1314 0 21.2014 0 20.0514C0 18.9014 0.94 17.9614 2.09 17.9614C3.24 17.9614 4.18 18.9014 4.18 20.0514C4.18 21.2014 3.24 22.1314 2.09 22.1314Z" fill="#060000"/>
<path d="M2.09 40.0906C0.94 40.0906 0 39.1506 0 38.0006C0 36.8506 0.94 35.9106 2.09 35.9106C3.24 35.9106 4.18 36.8506 4.18 38.0006C4.18 39.1506 3.24 40.0906 2.09 40.0906Z" fill="#060000"/>
<path d="M2.09 58.0496C0.94 58.0496 0 57.1096 0 55.9596C0 54.8096 0.94 53.8696 2.09 53.8696C3.24 53.8696 4.18 54.8096 4.18 55.9596C4.18 57.1096 3.24 58.0496 2.09 58.0496Z" fill="#060000"/>
<path d="M2.09 75.5106C0.94 75.5106 0 74.5806 0 73.4206C0 72.2606 0.94 71.3306 2.09 71.3306C3.24 71.3306 4.18 72.2706 4.18 73.4206C4.18 74.5706 3.24 75.5106 2.09 75.5106Z" fill="#060000"/>
<path d="M2.09 93.4715C0.94 93.4715 0 92.5315 0 91.3815C0 90.2315 0.94 89.2915 2.09 89.2915C3.24 89.2915 4.18 90.2315 4.18 91.3815C4.18 92.5315 3.24 93.4715 2.09 93.4715Z" fill="#060000"/>
<path d="M2.09 111.43C0.94 111.43 0 110.49 0 109.34C0 108.19 0.94 107.25 2.09 107.25C3.24 107.25 4.18 108.19 4.18 109.34C4.18 110.49 3.24 111.43 2.09 111.43Z" fill="#060000"/>
<path d="M2.09 129.38C0.94 129.38 0 128.44 0 127.29C0 126.14 0.94 125.2 2.09 125.2C3.24 125.2 4.18 126.14 4.18 127.29C4.18 128.45 3.24 129.38 2.09 129.38Z" fill="#060000"/>
</g>
<defs>
<clipPath id="clip0_2_5014">
<rect width="25.18" height="129.38" fill="white" transform="translate(0 0.000488281)"/>
</clipPath>
</defs>
</svg>
