<svg width="45" height="44" viewBox="0 0 45 44" fill="none" xmlns="http://www.w3.org/2000/svg">
<path d="M34.0898 23.8465C33.8143 23.8465 33.5859 23.6181 33.5859 23.3427V17.9687C33.5859 17.6932 33.8143 17.4648 34.0898 17.4648C34.3652 17.4648 34.5936 17.6932 34.5936 17.9687V23.3427C34.5936 23.6248 34.3652 23.8465 34.0898 23.8465Z" fill="#D91966"/>
<path d="M32.7493 44H7.22257C6.94715 44 6.71875 43.7716 6.71875 43.4962V0.503817C6.71875 0.228397 6.94715 0 7.22257 0H32.7493C33.7704 0 34.5966 0.82626 34.5966 1.84733V5.87786C34.5966 6.15328 34.3682 6.38168 34.0928 6.38168C33.8174 6.38168 33.589 6.15328 33.589 5.87786V1.84733C33.589 1.38382 33.2128 1.00763 32.7493 1.00763H7.72638V42.9924H32.7493C33.2128 42.9924 33.589 42.6162 33.589 42.1527V38.1221C33.589 37.8467 33.8174 37.6183 34.0928 37.6183C34.3682 37.6183 34.5966 37.8467 34.5966 38.1221V42.1527C34.5966 43.1737 33.7704 44 32.7493 44Z" fill="#D91966"/>
<path d="M7.22161 44H3.19108C2.17001 44 1.34375 43.1737 1.34375 42.1527V1.84733C1.34375 0.82626 2.17001 0 3.19108 0H7.22161C7.49703 0 7.72543 0.228397 7.72543 0.503817V43.4962C7.72543 43.7783 7.49703 44 7.22161 44ZM3.19108 1.00763C2.72757 1.00763 2.35138 1.38382 2.35138 1.84733V42.1527C2.35138 42.6162 2.72757 42.9924 3.19108 42.9924H6.7178V1.00763H3.19108Z" fill="#D91966"/>
<path d="M3.19084 41.3123H0.503817C0.228397 41.3123 0 41.0839 0 40.8085C0 40.5331 0.228397 40.3047 0.503817 40.3047H3.19084C3.46626 40.3047 3.69466 40.5331 3.69466 40.8085C3.69466 41.0906 3.46626 41.3123 3.19084 41.3123Z" fill="#D91966"/>
<path d="M3.19084 36.6111H0.503817C0.228397 36.6111 0 36.3828 0 36.1073C0 35.8319 0.228397 35.6035 0.503817 35.6035H3.19084C3.46626 35.6035 3.69466 35.8319 3.69466 36.1073C3.69466 36.3828 3.46626 36.6111 3.19084 36.6111Z" fill="#D91966"/>
<path d="M3.19084 31.908H0.503817C0.228397 31.908 0 31.6796 0 31.4042C0 31.1288 0.228397 30.9004 0.503817 30.9004H3.19084C3.46626 30.9004 3.69466 31.1288 3.69466 31.4042C3.69466 31.6796 3.46626 31.908 3.19084 31.908Z" fill="#D91966"/>
<path d="M3.19084 27.2069H0.503817C0.228397 27.2069 0 26.9785 0 26.703C0 26.4276 0.228397 26.1992 0.503817 26.1992H3.19084C3.46626 26.1992 3.69466 26.4276 3.69466 26.703C3.69466 26.9785 3.46626 27.2069 3.19084 27.2069Z" fill="#D91966"/>
<path d="M3.19084 22.5037H0.503817C0.228397 22.5037 0 22.2753 0 21.9999C0 21.7245 0.228397 21.4961 0.503817 21.4961H3.19084C3.46626 21.4961 3.69466 21.7245 3.69466 21.9999C3.69466 22.2753 3.46626 22.5037 3.19084 22.5037Z" fill="#D91966"/>
<path d="M3.19084 17.8006H0.503817C0.228397 17.8006 0 17.5722 0 17.2968C0 17.0214 0.228397 16.793 0.503817 16.793H3.19084C3.46626 16.793 3.69466 17.0214 3.69466 17.2968C3.69466 17.5722 3.46626 17.8006 3.19084 17.8006Z" fill="#D91966"/>
<path d="M3.19084 13.0994H0.503817C0.228397 13.0994 0 12.871 0 12.5956C0 12.3202 0.228397 12.0918 0.503817 12.0918H3.19084C3.46626 12.0918 3.69466 12.3202 3.69466 12.5956C3.69466 12.871 3.46626 13.0994 3.19084 13.0994Z" fill="#D91966"/>
<path d="M3.19084 8.39631H0.503817C0.228397 8.39631 0 8.16791 0 7.89249C0 7.61707 0.228397 7.38867 0.503817 7.38867H3.19084C3.46626 7.38867 3.69466 7.61707 3.69466 7.89249C3.69466 8.16791 3.46626 8.39631 3.19084 8.39631Z" fill="#D91966"/>
<path d="M3.19084 3.69513H0.503817C0.228397 3.69513 0 3.46674 0 3.19132C0 2.9159 0.221679 2.6875 0.503817 2.6875H3.19084C3.46626 2.6875 3.69466 2.9159 3.69466 3.19132C3.69466 3.46674 3.46626 3.69513 3.19084 3.69513Z" fill="#D91966"/>
<path d="M40.1383 35.9386H28.0467C27.4018 35.9386 26.8711 35.4079 26.8711 34.763V32.076C26.8711 31.4311 27.4018 30.9004 28.0467 30.9004H40.1383C40.7832 30.9004 41.3138 31.4311 41.3138 32.076V34.763C41.3138 35.4146 40.7832 35.9386 40.1383 35.9386ZM28.0467 31.908C27.9526 31.908 27.8787 31.9819 27.8787 32.076V34.763C27.8787 34.857 27.9526 34.9309 28.0467 34.9309H40.1383C40.2323 34.9309 40.3062 34.857 40.3062 34.763V32.076C40.3062 31.9819 40.2323 31.908 40.1383 31.908H28.0467Z" fill="#D91966"/>
<path d="M42.1551 38.6261H15.2848C14.2638 38.6261 13.4375 37.7998 13.4375 36.7788V24.6872C13.4375 23.6661 14.2638 22.8398 15.2848 22.8398H42.1551C43.1761 22.8398 44.0024 23.6661 44.0024 24.6872V36.7788C44.0024 37.7998 43.1761 38.6261 42.1551 38.6261ZM15.2848 23.8475C14.8213 23.8475 14.4451 24.2237 14.4451 24.6872V36.7788C14.4451 37.2423 14.8213 37.6185 15.2848 37.6185H42.1551C42.6186 37.6185 42.9948 37.2423 42.9948 36.7788V24.6872C42.9948 24.2237 42.6186 23.8475 42.1551 23.8475H15.2848Z" fill="#D91966"/>
<path d="M42.1528 18.4742H24.6872C23.6661 18.4742 22.8398 17.648 22.8398 16.6269V7.22233C22.8398 6.20126 23.6661 5.375 24.6872 5.375H42.1528C43.1739 5.375 44.0001 6.20126 44.0001 7.22233V16.6269C44.0001 17.648 43.1672 18.4742 42.1528 18.4742ZM24.6872 6.38263C24.2237 6.38263 23.8475 6.75882 23.8475 7.22233V16.6269C23.8475 17.0904 24.2237 17.4666 24.6872 17.4666H42.1528C42.6163 17.4666 42.9925 17.0904 42.9925 16.6269V7.22233C42.9925 6.75882 42.6163 6.38263 42.1528 6.38263H24.6872Z" fill="#D91966"/>
<path d="M37.4499 29.2205H33.1171C32.8417 29.2205 32.6133 28.9921 32.6133 28.7167C32.6133 28.4413 32.8417 28.2129 33.1171 28.2129H37.4499C37.7254 28.2129 37.9537 28.4413 37.9537 28.7167C37.9537 28.9988 37.7254 29.2205 37.4499 29.2205Z" fill="#D91966"/>
<path d="M30.4314 29.2205H27.3749C27.0995 29.2205 26.8711 28.9921 26.8711 28.7167C26.8711 28.4413 27.0995 28.2129 27.3749 28.2129H30.4314C30.7068 28.2129 30.9352 28.4413 30.9352 28.7167C30.9352 28.9988 30.7068 29.2205 30.4314 29.2205Z" fill="#D91966"/>
<path d="M40.8069 26.535H36.7226C36.4471 26.535 36.2188 26.3066 36.2188 26.0312C36.2188 25.7557 36.4471 25.5273 36.7226 25.5273H40.8069C41.0823 25.5273 41.3107 25.7557 41.3107 26.0312C41.3107 26.3133 41.0823 26.535 40.8069 26.535Z" fill="#D91966"/>
<path d="M34.0387 26.535H27.3749C27.0995 26.535 26.8711 26.3066 26.8711 26.0312C26.8711 25.7557 27.0995 25.5273 27.3749 25.5273H34.0387C34.3141 25.5273 34.5425 25.7557 34.5425 26.0312C34.5425 26.3133 34.3209 26.535 34.0387 26.535Z" fill="#D91966"/>
<path d="M37.8949 13.7713H34.7577C34.4823 13.7713 34.2539 13.5429 34.2539 13.2675C34.2539 12.9921 34.4823 12.7637 34.7577 12.7637H37.8949C38.1703 12.7637 38.3987 12.9921 38.3987 13.2675C38.3987 13.5429 38.177 13.7713 37.8949 13.7713Z" fill="#D91966"/>
<path d="M40.1357 11.0838H34.7616C34.4862 11.0838 34.2578 10.8554 34.2578 10.58C34.2578 10.3046 34.4862 10.0762 34.7616 10.0762H40.1357C40.4111 10.0762 40.6395 10.3046 40.6395 10.58C40.6395 10.8554 40.4111 11.0838 40.1357 11.0838Z" fill="#D91966"/>
<path d="M15.0548 14.4432H10.5741C10.2987 14.4432 10.0703 14.2148 10.0703 13.9394C10.0703 13.6639 10.2987 13.4355 10.5741 13.4355H15.0548C15.3302 13.4355 15.5586 13.6639 15.5586 13.9394C15.5586 14.2148 15.3369 14.4432 15.0548 14.4432Z" fill="#D91966"/>
<path d="M17.9713 11.7557H10.5819C10.3065 11.7557 10.0781 11.5273 10.0781 11.2519C10.0781 10.9764 10.3065 10.748 10.5819 10.748H17.9713C18.2467 10.748 18.4751 10.9764 18.4751 11.2519C18.4751 11.5273 18.2467 11.7557 17.9713 11.7557Z" fill="#D91966"/>
<path d="M20.2958 33.923C20.2084 33.923 20.1211 33.9028 20.0405 33.8558L17.7162 32.5123C17.5617 32.425 17.4609 32.257 17.4609 32.0756V29.3886C17.4609 29.2072 17.555 29.0393 17.7162 28.952L20.0405 27.6085C20.195 27.5211 20.3898 27.5211 20.5443 27.6085L22.8686 28.952C23.0231 29.0393 23.1238 29.2072 23.1238 29.3886V32.0756C23.1238 32.257 23.0298 32.425 22.8686 32.5123L20.5443 33.8558C20.4704 33.9028 20.3831 33.923 20.2958 33.923ZM18.4753 31.7868L20.2958 32.8414L22.1162 31.7868V29.6842L20.2958 28.6295L18.4753 29.6842V31.7868Z" fill="#D91966"/>
<path d="M29.0262 15.1144C28.9389 15.1144 28.8516 15.0942 28.771 15.0472L26.4467 13.7037C26.2922 13.6164 26.1914 13.4484 26.1914 13.267V10.58C26.1914 10.3986 26.2855 10.2307 26.4467 10.1434L28.771 8.79987C28.9255 8.71254 29.1203 8.71254 29.2748 8.79987L31.5991 10.1434C31.7536 10.2307 31.8543 10.3986 31.8543 10.58V13.267C31.8543 13.4484 31.7603 13.6164 31.5991 13.7037L29.2748 15.0472C29.2009 15.0942 29.1136 15.1144 29.0262 15.1144ZM27.2058 12.9782L29.0262 14.0328L30.8467 12.9782V10.8756L29.0262 9.82094L27.2058 10.8756V12.9782Z" fill="#D91966"/>
<path d="M12.9051 9.0675C12.8178 9.0675 12.7305 9.04735 12.6499 9.00032L10.3256 7.65681C10.1711 7.56948 10.0703 7.40155 10.0703 7.22017V4.53315C10.0703 4.35177 10.1644 4.18384 10.3256 4.09651L12.6499 2.753C12.8044 2.66567 12.9992 2.66567 13.1537 2.753L15.478 4.09651C15.6325 4.18384 15.7332 4.35177 15.7332 4.53315V7.22017C15.7332 7.40155 15.6392 7.56948 15.478 7.65681L13.1537 9.00032C13.0798 9.04735 12.9925 9.0675 12.9051 9.0675ZM11.0847 6.93132L12.9051 7.98597L14.7256 6.93132V4.822L12.9051 3.76735L11.0847 4.822V6.93132Z" fill="#D91966"/>
<path d="M39.4643 42.6561H36.7773C36.5018 42.6561 36.2734 42.4277 36.2734 42.1523C36.2734 41.8768 36.5018 41.6484 36.7773 41.6484H39.4643C39.7397 41.6484 39.9681 41.8768 39.9681 42.1523C39.9681 42.4344 39.7397 42.6561 39.4643 42.6561Z" fill="#D91966"/>
<path d="M38.121 43.9993C37.8456 43.9993 37.6172 43.7709 37.6172 43.4955V40.8085C37.6172 40.5331 37.8456 40.3047 38.121 40.3047C38.3964 40.3047 38.6248 40.5331 38.6248 40.8085V43.4955C38.6248 43.7777 38.3964 43.9993 38.121 43.9993Z" fill="#D91966"/>
<path d="M41.4799 2.35138H38.7929C38.5175 2.35138 38.2891 2.12299 38.2891 1.84757C38.2891 1.57215 38.5175 1.34375 38.7929 1.34375H41.4799C41.7553 1.34375 41.9837 1.57215 41.9837 1.84757C41.9837 2.12299 41.7553 2.35138 41.4799 2.35138Z" fill="#D91966"/>
<path d="M40.1366 3.69466C39.8612 3.69466 39.6328 3.46626 39.6328 3.19084V0.503817C39.6328 0.228397 39.8612 0 40.1366 0C40.412 0 40.6404 0.228397 40.6404 0.503817V3.19084C40.6404 3.46626 40.412 3.69466 40.1366 3.69466Z" fill="#D91966"/>
<path d="M24.2026 21.16H18.3046C18.0292 21.16 17.8008 20.9316 17.8008 20.6562C17.8008 20.3807 18.0292 20.1523 18.3046 20.1523H24.2026C24.4781 20.1523 24.7064 20.3807 24.7064 20.6562C24.7064 20.9316 24.4848 21.16 24.2026 21.16Z" fill="#D91966"/>
<path d="M28.3829 21.16H26.8983C26.6229 21.16 26.3945 20.9316 26.3945 20.6562C26.3945 20.3807 26.6229 20.1523 26.8983 20.1523H28.3829C28.6583 20.1523 28.8867 20.3807 28.8867 20.6562C28.8867 20.9316 28.6583 21.16 28.3829 21.16Z" fill="#D91966"/>
</svg>
