<svg width="44" height="44" viewBox="0 0 44 44" fill="none" xmlns="http://www.w3.org/2000/svg">
<path d="M43.4962 35.9399H0.503817C0.228397 35.9399 0 35.7115 0 35.4361V7.89408C0 6.50355 1.12855 5.375 2.51908 5.375H30.6186C30.894 5.375 31.1224 5.6034 31.1224 5.87882C31.1224 6.15424 30.894 6.38263 30.6186 6.38263H2.51908C1.68611 6.38263 1.00763 7.06111 1.00763 7.89408V34.9323H42.9924V7.89408C42.9924 7.06111 42.3139 6.38263 41.4809 6.38263H38.1557C37.8803 6.38263 37.6519 6.15424 37.6519 5.87882C37.6519 5.6034 37.8803 5.375 38.1557 5.375H41.4809C42.8714 5.375 44 6.50355 44 7.89408V35.4361C44 35.7182 43.7716 35.9399 43.4962 35.9399Z" fill="#D91966"/>
<path d="M30.7315 43.9991H13.2659C13.0778 43.9991 12.9099 43.8983 12.8225 43.7371C12.7352 43.5759 12.7419 43.3744 12.8427 43.2199L15.4961 39.1893C15.5902 39.0483 15.7447 38.9609 15.9193 38.9609H28.0714C28.2393 38.9609 28.4006 39.0483 28.4946 39.1893L31.148 43.2199C31.2488 43.3744 31.2555 43.5759 31.1682 43.7371C31.0876 43.8983 30.9129 43.9991 30.7315 43.9991ZM14.1996 42.9915H29.7978L27.8094 39.9686H16.1948L14.1996 42.9915Z" fill="#D91966"/>
<path d="M35.4365 43.9998H8.56632C8.2909 43.9998 8.0625 43.7714 8.0625 43.496C8.0625 43.2206 8.2909 42.9922 8.56632 42.9922H35.4365C35.712 42.9922 35.9404 43.2206 35.9404 43.496C35.9404 43.7781 35.712 43.9998 35.4365 43.9998Z" fill="#D91966"/>
<path d="M41.4809 39.9698H2.51908C1.12855 39.9698 0 38.8413 0 37.4507V35.4355C0 35.16 0.228397 34.9316 0.503817 34.9316H43.4962C43.7716 34.9316 44 35.16 44 35.4355V37.4507C44 38.8413 42.8714 39.9698 41.4809 39.9698ZM1.00763 35.9393V37.4507C1.00763 38.2837 1.68611 38.9622 2.51908 38.9622H41.4809C42.3139 38.9622 42.9924 38.2837 42.9924 37.4507V35.9393H1.00763Z" fill="#D91966"/>
<path d="M17.299 23.8477C17.0774 23.8477 16.8826 23.6999 16.8154 23.485C16.7482 23.27 16.8355 23.0349 17.0303 22.914C21.8468 19.8373 24.3928 16.3039 25.2661 14.9201C25.3467 14.7925 25.481 14.7051 25.6355 14.6917C25.79 14.6783 25.9378 14.7253 26.0453 14.8328C26.6701 15.4508 27.2746 16.0621 27.5568 16.3577C27.6239 16.4248 27.6643 16.5122 27.6844 16.6062C28.0807 18.7357 27.0597 20.6502 24.8093 21.9937C21.867 23.7671 17.4871 23.8477 17.299 23.8477ZM25.7699 15.9882C24.769 17.4593 22.6597 20.1329 19.1531 22.6856C20.6377 22.4975 22.7201 22.0743 24.2853 21.1406C25.5751 20.368 27.0194 19.0178 26.7104 16.9421C26.4887 16.7137 26.1461 16.3711 25.7699 15.9882Z" fill="#D91966"/>
<path d="M17.2968 23.8468C17.2095 23.8468 17.1289 23.8266 17.055 23.7863C16.8937 23.699 16.793 23.5244 16.793 23.343C16.793 23.2489 16.8333 21.059 17.458 18.728C18.6 14.5094 20.9914 12.4068 24.0211 12.9711C24.1218 12.9912 24.2159 13.0382 24.2831 13.1121C24.5182 13.3472 24.8473 13.6764 25.2168 14.0392L26.0363 14.852C26.2043 15.0199 26.2311 15.2819 26.1102 15.4767C25.2033 16.9143 22.5566 20.5955 17.5655 23.7796C17.4849 23.8199 17.3908 23.8468 17.2968 23.8468ZM23.0739 13.8847C20.2592 13.8847 18.9627 17.015 18.4321 18.99C18.0827 20.273 17.9282 21.5359 17.8544 22.3689C21.7976 19.6617 24.0681 16.7262 25.0354 15.2685L24.5047 14.7445C24.1957 14.4355 23.9069 14.1534 23.6852 13.9317C23.4769 13.8981 23.2687 13.8847 23.0739 13.8847Z" fill="#D91966"/>
<path d="M29.8918 15.0602C29.7641 15.0602 29.6365 15.0132 29.5357 14.9124L25.7269 11.1035C25.5455 10.9155 25.5321 10.6266 25.7 10.4251C29.0319 6.455 35.333 -0.188666 40.1562 0.0061432C40.4182 0.0128608 40.6331 0.227823 40.6399 0.489808C40.8145 5.31301 34.1843 11.6141 30.2209 14.946C30.1202 15.0266 30.006 15.0602 29.8918 15.0602ZM26.7614 10.7207L29.9186 13.8779C35.8906 8.80615 39.377 4.17775 39.6188 1.02721C36.4683 1.26233 31.8399 4.74875 26.7614 10.7207Z" fill="#D91966"/>
<path d="M27.1856 17.2169C27.0579 17.2169 26.9236 17.1698 26.8295 17.0691L23.5715 13.8111C23.3969 13.6364 23.3767 13.3543 23.5245 13.1595C23.5312 13.146 24.3776 12.004 25.701 10.4254C25.795 10.3179 25.9227 10.2508 26.0637 10.244C26.2048 10.2306 26.3392 10.2911 26.4399 10.3918L30.2488 14.2007C30.3495 14.3015 30.4033 14.4358 30.3966 14.5769C30.3898 14.7179 30.3227 14.8523 30.2152 14.9396C28.6366 16.263 27.4946 17.1027 27.4811 17.1161C27.3938 17.1833 27.2863 17.2169 27.1856 17.2169ZM24.5926 13.408L27.2326 16.048C27.6155 15.7525 28.3007 15.2285 29.1471 14.5231L26.1175 11.4935C25.4188 12.3399 24.8882 13.0251 24.5926 13.408Z" fill="#D91966"/>
<path d="M37.4502 31.9091C37.2756 31.9091 14.6105 31.9091 14.6105 31.9091C12.1116 31.9091 10.0762 29.8736 10.0762 27.3747C10.0762 24.8758 12.1116 22.8404 14.6105 22.8404H17.2975C17.573 22.8404 17.8014 23.0688 17.8014 23.3442C17.8014 23.6196 17.573 23.848 17.2975 23.848H14.6105C12.6691 23.848 11.0838 25.4333 11.0838 27.3747C11.0838 29.3161 12.6691 30.9014 14.6105 30.9014H33.8832C35.9253 30.9014 36.9464 30.9014 37.4502 30.9686V30.9014C38.6527 30.9014 39.6334 29.9207 39.6334 28.7182C39.6334 27.5158 38.6527 26.535 37.4502 26.535H32.0762C32.0695 26.535 32.056 26.535 32.0493 26.535C30.3028 26.5216 28.8853 25.0975 28.8853 23.3442C28.8853 21.5842 30.3162 20.1533 32.0762 20.1533H37.4502C38.6527 20.1533 39.6334 19.1726 39.6334 17.9701C39.6334 16.7677 38.6527 15.7869 37.4502 15.7869H34.0914C33.816 15.7869 33.5876 15.5585 33.5876 15.2831C33.5876 15.0077 33.816 14.7793 34.0914 14.7793H37.4502C39.2102 14.7793 40.6411 16.2101 40.6411 17.9701C40.6411 19.7301 39.2102 21.161 37.4502 21.161H32.0762C30.8737 21.161 29.893 22.1417 29.893 23.3442C29.893 24.5466 30.8737 25.5274 32.0762 25.5274C32.0829 25.5274 32.0963 25.5274 32.103 25.5274H37.4502C39.2102 25.5274 40.6411 26.9582 40.6411 28.7182C40.6411 30.4782 39.2102 31.9091 37.4502 31.9091Z" fill="#D91966"/>
<path d="M6.5501 13.0987H3.86307C3.21819 13.0987 2.6875 12.568 2.6875 11.9231V9.23612C2.6875 8.59123 3.21819 8.06055 3.86307 8.06055H6.5501C7.19498 8.06055 7.72566 8.59123 7.72566 9.23612V11.9231C7.72566 12.5747 7.19498 13.0987 6.5501 13.0987ZM3.86307 9.06818C3.76903 9.06818 3.69513 9.14207 3.69513 9.23612V11.9231C3.69513 12.0172 3.76903 12.0911 3.86307 12.0911H6.5501C6.64414 12.0911 6.71803 12.0172 6.71803 11.9231V9.23612C6.71803 9.14207 6.64414 9.06818 6.5501 9.06818H3.86307Z" fill="#D91966"/>
<path d="M6.5501 19.8175H3.86307C3.21819 19.8175 2.6875 19.2868 2.6875 18.6419V15.9549C2.6875 15.31 3.21819 14.7793 3.86307 14.7793H6.5501C7.19498 14.7793 7.72566 15.31 7.72566 15.9549V18.6419C7.72566 19.2935 7.19498 19.8175 6.5501 19.8175ZM3.86307 15.7869C3.76903 15.7869 3.69513 15.8608 3.69513 15.9549V18.6419C3.69513 18.7359 3.76903 18.8098 3.86307 18.8098H6.5501C6.64414 18.8098 6.71803 18.7359 6.71803 18.6419V15.9549C6.71803 15.8608 6.64414 15.7869 6.5501 15.7869H3.86307Z" fill="#D91966"/>
<path d="M6.5501 26.5343H3.86307C3.21819 26.5343 2.6875 26.0036 2.6875 25.3587V22.6717C2.6875 22.0268 3.21819 21.4961 3.86307 21.4961H6.5501C7.19498 21.4961 7.72566 22.0268 7.72566 22.6717V25.3587C7.72566 26.0103 7.19498 26.5343 6.5501 26.5343ZM3.86307 22.5037C3.76903 22.5037 3.69513 22.5776 3.69513 22.6717V25.3587C3.69513 25.4527 3.76903 25.5266 3.86307 25.5266H6.5501C6.64414 25.5266 6.71803 25.4527 6.71803 25.3587V22.6717C6.71803 22.5776 6.64414 22.5037 6.5501 22.5037H3.86307Z" fill="#D91966"/>
<path d="M6.5501 33.2511H3.86307C3.21819 33.2511 2.6875 32.7204 2.6875 32.0755V29.3885C2.6875 28.7436 3.21819 28.2129 3.86307 28.2129H6.5501C7.19498 28.2129 7.72566 28.7436 7.72566 29.3885V32.0755C7.72566 32.7271 7.19498 33.2511 6.5501 33.2511ZM3.86307 29.2205C3.76903 29.2205 3.69513 29.2944 3.69513 29.3885V32.0755C3.69513 32.1695 3.76903 32.2434 3.86307 32.2434H6.5501C6.64414 32.2434 6.71803 32.1695 6.71803 32.0755V29.3885C6.71803 29.2944 6.64414 29.2205 6.5501 29.2205H3.86307Z" fill="#D91966"/>
<path d="M26.2851 3.69466C26.0096 3.69466 25.7812 3.46626 25.7812 3.19084V0.503817C25.7812 0.228397 26.0096 0 26.2851 0C26.5605 0 26.7889 0.228397 26.7889 0.503817V3.19084C26.7889 3.46626 26.5605 3.69466 26.2851 3.69466Z" fill="#D91966"/>
<path d="M27.6283 2.35138H24.9413C24.6659 2.35138 24.4375 2.12299 24.4375 1.84757C24.4375 1.57215 24.6659 1.34375 24.9413 1.34375H27.6283C27.9038 1.34375 28.1322 1.57215 28.1322 1.84757C28.1322 2.12299 27.9038 2.35138 27.6283 2.35138Z" fill="#D91966"/>
<path d="M11.5876 18.6404H10.58C10.3046 18.6404 10.0762 18.412 10.0762 18.1366C10.0762 17.8612 10.3046 17.6328 10.58 17.6328H11.5876C11.863 17.6328 12.0914 17.8612 12.0914 18.1366C12.0914 18.412 11.863 18.6404 11.5876 18.6404Z" fill="#D91966"/>
<path d="M14.947 18.6404H13.9394C13.6639 18.6404 13.4355 18.412 13.4355 18.1366C13.4355 17.8612 13.6639 17.6328 13.9394 17.6328H14.947C15.2224 17.6328 15.4508 17.8612 15.4508 18.1366C15.4508 18.412 15.2224 18.6404 14.947 18.6404Z" fill="#D91966"/>
<path d="M12.7636 20.8239C12.4882 20.8239 12.2598 20.5955 12.2598 20.32V19.3124C12.2598 19.037 12.4882 18.8086 12.7636 18.8086C13.039 18.8086 13.2674 19.037 13.2674 19.3124V20.32C13.2674 20.6022 13.039 20.8239 12.7636 20.8239Z" fill="#D91966"/>
<path d="M12.7636 17.4664C12.4882 17.4664 12.2598 17.238 12.2598 16.9626V15.955C12.2598 15.6796 12.4882 15.4512 12.7636 15.4512C13.039 15.4512 13.2674 15.6796 13.2674 15.955V16.9626C13.2674 17.2448 13.039 17.4664 12.7636 17.4664Z" fill="#D91966"/>
<path d="M15.6169 11.2518H14.6093C14.3339 11.2518 14.1055 11.0234 14.1055 10.748C14.1055 10.4725 14.3339 10.2441 14.6093 10.2441H15.6169C15.8923 10.2441 16.1207 10.4725 16.1207 10.748C16.1207 11.0301 15.8923 11.2518 15.6169 11.2518Z" fill="#D91966"/>
<path d="M18.9763 11.2518H17.9687C17.6932 11.2518 17.4648 11.0234 17.4648 10.748C17.4648 10.4725 17.6932 10.2441 17.9687 10.2441H18.9763C19.2517 10.2441 19.4801 10.4725 19.4801 10.748C19.4801 11.0301 19.2517 11.2518 18.9763 11.2518Z" fill="#D91966"/>
<path d="M16.7948 13.4352C16.5194 13.4352 16.291 13.2068 16.291 12.9314V11.9237C16.291 11.6483 16.5194 11.4199 16.7948 11.4199C17.0703 11.4199 17.2986 11.6483 17.2986 11.9237V12.9314C17.2986 13.2135 17.0703 13.4352 16.7948 13.4352Z" fill="#D91966"/>
<path d="M16.7948 10.0758C16.5194 10.0758 16.291 9.84742 16.291 9.572V8.56436C16.291 8.28894 16.5194 8.06055 16.7948 8.06055C17.0703 8.06055 17.2986 8.28894 17.2986 8.56436V9.572C17.2986 9.85413 17.0703 10.0758 16.7948 10.0758Z" fill="#D91966"/>
</svg>
