<svg width="44" height="44" viewBox="0 0 44 44" fill="none" xmlns="http://www.w3.org/2000/svg">
<path d="M36.7786 44H7.22138C3.23787 44 0 40.7621 0 36.7786V7.22137C0 3.23786 3.23787 0 7.22138 0H36.7786C40.7621 0 44 3.23786 44 7.22137V36.7786C44 40.7621 40.7621 44 36.7786 44ZM7.22138 1.00763C3.79543 1.00763 1.00763 3.79542 1.00763 7.22137V36.7786C1.00763 40.2046 3.79543 42.9924 7.22138 42.9924H36.7786C40.2046 42.9924 42.9924 40.2046 42.9924 36.7786V7.22137C42.9924 3.79542 40.2046 1.00763 36.7786 1.00763H7.22138Z" fill="#FAFAFA"/>
<path d="M13.7173 35.9391H0.503817C0.228397 35.9391 0 35.7107 0 35.4353V12.5956C0 12.3202 0.228397 12.0918 0.503817 12.0918H13.7173C13.9927 12.0918 14.2211 12.3202 14.2211 12.5956C14.2211 12.871 13.9927 13.0994 13.7173 13.0994H1.00763V34.9315H13.7173C13.9927 34.9315 14.2211 35.1599 14.2211 35.4353C14.2211 35.7107 13.9927 35.9391 13.7173 35.9391Z" fill="#FAFAFA"/>
<path d="M43.4965 35.9391H30.2831C30.0077 35.9391 29.7793 35.7107 29.7793 35.4353C29.7793 35.1599 30.0077 34.9315 30.2831 34.9315H42.9927V13.0994H30.2831C30.0077 13.0994 29.7793 12.871 29.7793 12.5956C29.7793 12.3202 30.0077 12.0918 30.2831 12.0918H43.4965C43.772 12.0918 44.0004 12.3202 44.0004 12.5956V35.4353C44.0004 35.7107 43.772 35.9391 43.4965 35.9391Z" fill="#FAFAFA"/>
<path d="M38.7934 9.74105H32.0758C31.0548 9.74105 30.2285 8.91479 30.2285 7.89373V5.2067C30.2285 4.18563 31.0548 3.35938 32.0758 3.35938H38.7934C39.8145 3.35938 40.6407 4.18563 40.6407 5.2067V7.89373C40.6407 8.90808 39.8145 9.74105 38.7934 9.74105ZM32.0758 4.36701C31.6123 4.36701 31.2361 4.74319 31.2361 5.2067V7.89373C31.2361 8.35724 31.6123 8.73342 32.0758 8.73342H38.7934C39.2569 8.73342 39.6331 8.35724 39.6331 7.89373V5.2067C39.6331 4.74319 39.2569 4.36701 38.7934 4.36701H32.0758Z" fill="#FAFAFA"/>
<path d="M22.0013 38.6257C13.947 38.6257 7.39062 32.0693 7.39062 24.015C7.39062 15.9606 13.947 9.4043 22.0013 9.4043C30.0557 9.4043 36.612 15.9606 36.612 24.015C36.612 32.0693 30.0557 38.6257 22.0013 38.6257ZM22.0013 10.4119C14.4978 10.4119 8.39826 16.5115 8.39826 24.015C8.39826 31.5185 14.4978 37.618 22.0013 37.618C29.5048 37.618 35.6044 31.5185 35.6044 24.015C35.6044 16.5115 29.4981 10.4119 22.0013 10.4119Z" fill="#FAFAFA"/>
<path d="M22.0001 34.5959C16.1692 34.5959 11.4199 29.8465 11.4199 24.0157C11.4199 18.1849 16.1692 13.4355 22.0001 13.4355C27.8309 13.4355 32.5802 18.1849 32.5802 24.0157C32.5802 29.8533 27.8309 34.5959 22.0001 34.5959ZM22.0001 14.4432C16.7201 14.4432 12.4276 18.7357 12.4276 24.0157C12.4276 29.2957 16.7201 33.5882 22.0001 33.5882C27.2801 33.5882 31.5726 29.2957 31.5726 24.0157C31.5726 18.7357 27.2801 14.4432 22.0001 14.4432Z" fill="#FAFAFA"/>
<path d="M6.55033 9.06942C5.1598 9.06942 4.03125 7.94087 4.03125 6.55033C4.03125 5.1598 5.1598 4.03125 6.55033 4.03125C7.94087 4.03125 9.06942 5.1598 9.06942 6.55033C9.06942 7.94087 7.93415 9.06942 6.55033 9.06942ZM6.55033 5.03888C5.71736 5.03888 5.03888 5.71736 5.03888 6.55033C5.03888 7.38331 5.71736 8.06178 6.55033 8.06178C7.38331 8.06178 8.06178 7.38331 8.06178 6.55033C8.06178 5.71736 7.38331 5.03888 6.55033 5.03888Z" fill="#FAFAFA"/>
<path d="M28.7187 4.36701C28.9969 4.36701 29.2225 4.14144 29.2225 3.86319C29.2225 3.58494 28.9969 3.35938 28.7187 3.35938C28.4404 3.35938 28.2148 3.58494 28.2148 3.86319C28.2148 4.14144 28.4404 4.36701 28.7187 4.36701Z" fill="#FAFAFA"/>
<path d="M24.6868 30.565C22.5573 30.565 20.8242 28.8319 20.8242 26.7024C20.8242 24.573 22.5573 22.8398 24.6868 22.8398C26.8163 22.8398 28.5494 24.573 28.5494 26.7024C28.5494 28.8319 26.8163 30.565 24.6868 30.565ZM24.6868 23.8475C23.1149 23.8475 21.8319 25.1305 21.8319 26.7024C21.8319 28.2743 23.1149 29.5574 24.6868 29.5574C26.2587 29.5574 27.5418 28.2743 27.5418 26.7024C27.5418 25.1305 26.2587 23.8475 24.6868 23.8475Z" fill="#FAFAFA"/>
<path d="M40.808 31.2361H38.121C37.8456 31.2361 37.6172 31.0078 37.6172 30.7323C37.6172 30.4569 37.8456 30.2285 38.121 30.2285H40.808C41.0834 30.2285 41.3118 30.4569 41.3118 30.7323C41.3118 31.0078 41.0834 31.2361 40.808 31.2361Z" fill="#FAFAFA"/>
<path d="M39.4648 32.5794C39.1893 32.5794 38.9609 32.351 38.9609 32.0756V29.3886C38.9609 29.1132 39.1893 28.8848 39.4648 28.8848C39.7402 28.8848 39.9686 29.1132 39.9686 29.3886V32.0756C39.9686 32.351 39.7402 32.5794 39.4648 32.5794Z" fill="#FAFAFA"/>
<path d="M30.6401 41.992H24.7421C24.4667 41.992 24.2383 41.7636 24.2383 41.4882C24.2383 41.2128 24.4667 40.9844 24.7421 40.9844H30.6401C30.9155 40.9844 31.1439 41.2128 31.1439 41.4882C31.1439 41.7636 30.9155 41.992 30.6401 41.992Z" fill="#FAFAFA"/>
<path d="M34.8107 41.992H33.3261C33.0507 41.992 32.8223 41.7636 32.8223 41.4882C32.8223 41.2128 33.0507 40.9844 33.3261 40.9844H34.8107C35.0861 40.9844 35.3145 41.2128 35.3145 41.4882C35.3145 41.7636 35.0928 41.992 34.8107 41.992Z" fill="#FAFAFA"/>
<path d="M20.7651 18.4725H18.078C17.8026 18.4725 17.5742 18.2441 17.5742 17.9687C17.5742 17.6932 17.8026 17.4648 18.078 17.4648H20.7651C21.0405 17.4648 21.2689 17.6932 21.2689 17.9687C21.2689 18.2441 21.0472 18.4725 20.7651 18.4725Z" fill="#FAFAFA"/>
<path d="M19.4218 19.8177C19.1464 19.8177 18.918 19.5893 18.918 19.3139V16.6269C18.918 16.3514 19.1464 16.123 19.4218 16.123C19.6972 16.123 19.9256 16.3514 19.9256 16.6269V19.3139C19.9256 19.5893 19.7039 19.8177 19.4218 19.8177Z" fill="#FAFAFA"/>
</svg>
